<?xml version="1.0" encoding="UTF-8" standalone="no"?>
<!DOCTYPE svg PUBLIC "-//W3C//DTD SVG 1.1//EN"
 "http://www.w3.org/Graphics/SVG/1.1/DTD/svg11.dtd">
<!-- Generated by graphviz version 2.36.0 (20140111.2315)
 -->
<!-- Title: g Pages: 1 -->
<svg width="1134pt" height="564pt"
 viewBox="0.00 0.00 1134.00 564.00" xmlns="http://www.w3.org/2000/svg" xmlns:xlink="http://www.w3.org/1999/xlink">
<g id="graph0" class="graph" transform="scale(1 1) rotate(0) translate(4 560)">
<title>g</title>
<polygon fill="white" stroke="none" points="-4,4 -4,-560 1130,-560 1130,4 -4,4"/>
<!-- state0 -->
<g id="node1" class="node"><title>state0</title>
<path fill="white" stroke="black" stroke-width="5" d="M12,-76C12,-76 166,-76 166,-76 172,-76 178,-82 178,-88 178,-88 178,-236 178,-236 178,-242 172,-248 166,-248 166,-248 12,-248 12,-248 6,-248 0,-242 0,-236 0,-236 0,-88 0,-88 0,-82 6,-76 12,-76"/>
<polygon fill="white" stroke="none" points="8,-80 8,-244 170,-244 170,-80 8,-80"/>
<polygon fill="black" stroke="none" points="10,-220 10,-242 168,-242 168,-220 10,-220"/>
<text text-anchor="start" x="55.5" y="-227.3" font-family="Courier New" font-size="14.00" fill="white">State #0</text>
<text text-anchor="start" x="13" y="-203.8" font-family="Courier New" font-size="14.00">(0) s &#45;&gt; •e $ </text>
<text text-anchor="start" x="13" y="-180.8" font-family="Courier New" font-size="14.00">(1) e &#45;&gt; •l &#39;=&#39; r </text>
<text text-anchor="start" x="13" y="-157.8" font-family="Courier New" font-size="14.00">(2) e &#45;&gt; •r </text>
<text text-anchor="start" x="13" y="-134.8" font-family="Courier New" font-size="14.00">(3) l &#45;&gt; •&#39;*&#39; r </text>
<text text-anchor="start" x="13" y="-111.8" font-family="Courier New" font-size="14.00">(4) l &#45;&gt; •&#39;n&#39; </text>
<text text-anchor="start" x="13" y="-88.8" font-family="Courier New" font-size="14.00">(5) r &#45;&gt; •l </text>
</g>
<!-- state1 -->
<g id="node2" class="node"><title>state1</title>
<path fill="white" stroke="black" d="M726,-253C726,-253 864,-253 864,-253 870,-253 876,-259 876,-265 876,-265 876,-367 876,-367 876,-373 870,-379 864,-379 864,-379 726,-379 726,-379 720,-379 714,-373 714,-367 714,-367 714,-265 714,-265 714,-259 720,-253 726,-253"/>
<polygon fill="white" stroke="none" points="722,-257 722,-375 868,-375 868,-257 722,-257"/>
<polygon fill="black" stroke="none" points="724,-351 724,-373 866,-373 866,-351 724,-351"/>
<text text-anchor="start" x="761.5" y="-358.3" font-family="Courier New" font-size="14.00" fill="white">State #1</text>
<text text-anchor="start" x="727" y="-334.8" font-family="Courier New" font-size="14.00">(3) l &#45;&gt; •&#39;*&#39; r </text>
<text text-anchor="start" x="727" y="-311.8" font-family="Courier New" font-size="14.00">(3) l &#45;&gt; &#39;*&#39; •r </text>
<text text-anchor="start" x="727" y="-288.8" font-family="Courier New" font-size="14.00">(4) l &#45;&gt; •&#39;n&#39; </text>
<text text-anchor="start" x="727" y="-265.8" font-family="Courier New" font-size="14.00">(5) r &#45;&gt; •l </text>
</g>
<!-- state0&#45;&gt;state1 -->
<g id="edge4" class="edge"><title>state0&#45;&gt;state1</title>
<path fill="none" stroke="black" d="M178.037,-173.972C330.059,-194.753 627.756,-235.962 650,-243 668.205,-248.76 686.919,-256.624 704.581,-265.064"/>
<polygon fill="black" stroke="black" points="703.191,-268.28 713.713,-269.522 706.262,-261.99 703.191,-268.28"/>
<text text-anchor="middle" x="447" y="-216.8" font-family="Times,serif" font-size="14.00" fill="#474747">&#39;*&#39;</text>
</g>
<!-- state2 -->
<g id="node3" class="node"><title>state2</title>
<path fill="white" stroke="black" d="M961,-190.5C961,-190.5 1105,-190.5 1105,-190.5 1111,-190.5 1117,-196.5 1117,-202.5 1117,-202.5 1117,-235.5 1117,-235.5 1117,-241.5 1111,-247.5 1105,-247.5 1105,-247.5 961,-247.5 961,-247.5 955,-247.5 949,-241.5 949,-235.5 949,-235.5 949,-202.5 949,-202.5 949,-196.5 955,-190.5 961,-190.5"/>
<polygon fill="white" stroke="none" points="957,-194.5 957,-243.5 1109,-243.5 1109,-194.5 957,-194.5"/>
<polygon fill="black" stroke="none" points="959,-219 959,-241 1107,-241 1107,-219 959,-219"/>
<text text-anchor="start" x="999.5" y="-226.3" font-family="Courier New" font-size="14.00" fill="white">State #2</text>
<text text-anchor="start" x="962" y="-202.8" font-family="Courier New" font-size="14.00">(4) l &#45;&gt; &#39;n&#39; •</text>
<polygon fill="grey" stroke="none" points="1084,-196 1084,-217 1107,-217 1107,-196 1084,-196"/>
<text text-anchor="start" x="1087" y="-202.8" font-family="Courier New" font-size="14.00">=$</text>
</g>
<!-- state0&#45;&gt;state2 -->
<g id="edge5" class="edge"><title>state0&#45;&gt;state2</title>
<path fill="none" stroke="black" d="M178.061,-162C221.921,-162 275.758,-162 324,-162 324,-162 324,-162 796,-162 846.061,-162 900.468,-174.268 944.413,-187.422"/>
<polygon fill="black" stroke="black" points="943.611,-190.837 954.197,-190.417 945.66,-184.143 943.611,-190.837"/>
<text text-anchor="middle" x="561" y="-165.8" font-family="Times,serif" font-size="14.00" fill="#474747">&#39;n&#39;</text>
</g>
<!-- state5 -->
<g id="node6" class="node"><title>state5</title>
<path fill="black" stroke="black" d="M264.5,-76.5C264.5,-76.5 385.5,-76.5 385.5,-76.5 391.5,-76.5 397.5,-82.5 397.5,-88.5 397.5,-88.5 397.5,-121.5 397.5,-121.5 397.5,-127.5 391.5,-133.5 385.5,-133.5 385.5,-133.5 264.5,-133.5 264.5,-133.5 258.5,-133.5 252.5,-127.5 252.5,-121.5 252.5,-121.5 252.5,-88.5 252.5,-88.5 252.5,-82.5 258.5,-76.5 264.5,-76.5"/>
<polygon fill="black" stroke="none" points="260.5,-80.5 260.5,-129.5 389.5,-129.5 389.5,-80.5 260.5,-80.5"/>
<polygon fill="black" stroke="none" points="263,-105 263,-127 388,-127 388,-105 263,-105"/>
<text text-anchor="start" x="292" y="-112.3" font-family="Courier New" font-size="14.00" fill="white">State #5</text>
<text text-anchor="start" x="266" y="-88.8" font-family="Courier New" font-size="14.00" fill="white">(0) s &#45;&gt; e •$ </text>
</g>
<!-- state0&#45;&gt;state5 -->
<g id="edge1" class="edge"><title>state0&#45;&gt;state5</title>
<path fill="none" stroke="black" stroke-width="5" d="M178.083,-122.241C184.08,-120.27 190.088,-118.494 196,-117 210.734,-113.278 226.684,-110.686 242.162,-108.888"/>
<polygon fill="black" stroke="black" stroke-width="5" points="242.766,-113.223 252.248,-107.817 241.841,-104.522 242.766,-113.223"/>
<text text-anchor="middle" x="203" y="-125.6" font-family="Times,serif" font-size="28.00">e</text>
</g>
<!-- state6 -->
<g id="node7" class="node"><title>state6</title>
<path fill="white" stroke="black" d="M240.5,-249C240.5,-249 409.5,-249 409.5,-249 415.5,-249 421.5,-255 421.5,-261 421.5,-261 421.5,-317 421.5,-317 421.5,-323 415.5,-329 409.5,-329 409.5,-329 240.5,-329 240.5,-329 234.5,-329 228.5,-323 228.5,-317 228.5,-317 228.5,-261 228.5,-261 228.5,-255 234.5,-249 240.5,-249"/>
<polygon fill="white" stroke="none" points="236.5,-253 236.5,-325 413.5,-325 413.5,-253 236.5,-253"/>
<polygon fill="black" stroke="none" points="239,-301 239,-323 412,-323 412,-301 239,-301"/>
<text text-anchor="start" x="292" y="-308.3" font-family="Courier New" font-size="14.00" fill="white">State #6</text>
<text text-anchor="start" x="242" y="-284.8" font-family="Courier New" font-size="14.00">(1) e &#45;&gt; l •&#39;=&#39; r </text>
<text text-anchor="start" x="242" y="-261.8" font-family="Courier New" font-size="14.00">(5) r &#45;&gt; l •</text>
<polygon fill="grey" stroke="none" points="397,-255 397,-276 412,-276 412,-255 397,-255"/>
<text text-anchor="start" x="400" y="-261.8" font-family="Courier New" font-size="14.00">$</text>
</g>
<!-- state0&#45;&gt;state6 -->
<g id="edge2" class="edge"><title>state0&#45;&gt;state6</title>
<path fill="none" stroke="black" stroke-width="5" d="M178.132,-209.832C198.784,-221.041 220.717,-232.944 241.13,-244.023"/>
<polygon fill="black" stroke="black" stroke-width="5" points="239.207,-247.958 250.083,-248.883 243.381,-240.267 239.207,-247.958"/>
<text text-anchor="middle" x="203" y="-234.6" font-family="Times,serif" font-size="28.00">l</text>
</g>
<!-- state9 -->
<g id="node10" class="node"><title>state9</title>
<path fill="white" stroke="black" d="M265,-0.5C265,-0.5 385,-0.5 385,-0.5 391,-0.5 397,-6.5 397,-12.5 397,-12.5 397,-45.5 397,-45.5 397,-51.5 391,-57.5 385,-57.5 385,-57.5 265,-57.5 265,-57.5 259,-57.5 253,-51.5 253,-45.5 253,-45.5 253,-12.5 253,-12.5 253,-6.5 259,-0.5 265,-0.5"/>
<polygon fill="white" stroke="none" points="261,-4.5 261,-53.5 389,-53.5 389,-4.5 261,-4.5"/>
<polygon fill="black" stroke="none" points="263,-29 263,-51 387,-51 387,-29 263,-29"/>
<text text-anchor="start" x="291.5" y="-36.3" font-family="Courier New" font-size="14.00" fill="white">State #9</text>
<text text-anchor="start" x="266" y="-12.8" font-family="Courier New" font-size="14.00">(2) e &#45;&gt; r •</text>
<polygon fill="grey" stroke="none" points="372,-6 372,-27 387,-27 387,-6 372,-6"/>
<text text-anchor="start" x="375" y="-12.8" font-family="Courier New" font-size="14.00">$</text>
</g>
<!-- state0&#45;&gt;state9 -->
<g id="edge3" class="edge"><title>state0&#45;&gt;state9</title>
<path fill="none" stroke="black" stroke-width="5" d="M178.036,-90.075C183.994,-86.1471 190.011,-82.4161 196,-79 210.812,-70.5518 227.33,-62.9236 243.448,-56.316"/>
<polygon fill="black" stroke="black" stroke-width="5" points="245.215,-60.321 252.875,-52.545 241.965,-52.1969 245.215,-60.321"/>
<text text-anchor="middle" x="203" y="-87.6" font-family="Times,serif" font-size="28.00">r</text>
</g>
<!-- state1&#45;&gt;state1 -->
<g id="edge6" class="edge"><title>state1&#45;&gt;state1</title>
<path fill="none" stroke="black" d="M774.088,-379.168C777.014,-389.719 783.984,-397 795,-397 802.401,-397 807.976,-393.713 811.726,-388.356"/>
<polygon fill="black" stroke="black" points="814.951,-389.719 815.912,-379.168 808.581,-386.817 814.951,-389.719"/>
<text text-anchor="middle" x="795" y="-400.8" font-family="Times,serif" font-size="14.00" fill="#474747">&#39;*&#39;</text>
</g>
<!-- state1&#45;&gt;state2 -->
<g id="edge8" class="edge"><title>state1&#45;&gt;state2</title>
<path fill="none" stroke="black" d="M876.228,-283.025C901.111,-272.798 928.499,-261.541 953.278,-251.356"/>
<polygon fill="black" stroke="black" points="954.718,-254.548 962.636,-247.51 952.057,-248.074 954.718,-254.548"/>
<text text-anchor="middle" x="916" y="-271.8" font-family="Times,serif" font-size="14.00" fill="#474747">&#39;n&#39;</text>
</g>
<!-- state3 -->
<g id="node4" class="node"><title>state3</title>
<path fill="white" stroke="black" d="M969,-374.5C969,-374.5 1097,-374.5 1097,-374.5 1103,-374.5 1109,-380.5 1109,-386.5 1109,-386.5 1109,-419.5 1109,-419.5 1109,-425.5 1103,-431.5 1097,-431.5 1097,-431.5 969,-431.5 969,-431.5 963,-431.5 957,-425.5 957,-419.5 957,-419.5 957,-386.5 957,-386.5 957,-380.5 963,-374.5 969,-374.5"/>
<polygon fill="white" stroke="none" points="965,-378.5 965,-427.5 1101,-427.5 1101,-378.5 965,-378.5"/>
<polygon fill="black" stroke="none" points="967,-403 967,-425 1099,-425 1099,-403 967,-403"/>
<text text-anchor="start" x="999.5" y="-410.3" font-family="Courier New" font-size="14.00" fill="white">State #3</text>
<text text-anchor="start" x="970" y="-386.8" font-family="Courier New" font-size="14.00">(5) r &#45;&gt; l •</text>
<polygon fill="grey" stroke="none" points="1076,-380 1076,-401 1099,-401 1099,-380 1076,-380"/>
<text text-anchor="start" x="1079" y="-386.8" font-family="Courier New" font-size="14.00">=$</text>
</g>
<!-- state1&#45;&gt;state3 -->
<g id="edge9" class="edge"><title>state1&#45;&gt;state3</title>
<path fill="none" stroke="black" stroke-width="5" d="M876.228,-345.576C899.13,-354.018 924.154,-363.243 947.313,-371.781"/>
<polygon fill="black" stroke="black" stroke-width="5" points="945.873,-375.912 956.769,-375.266 948.899,-367.703 945.873,-375.912"/>
<text text-anchor="middle" x="916" y="-370.6" font-family="Times,serif" font-size="28.00">l</text>
</g>
<!-- state4 -->
<g id="node5" class="node"><title>state4</title>
<path fill="white" stroke="black" d="M952.5,-287.5C952.5,-287.5 1113.5,-287.5 1113.5,-287.5 1119.5,-287.5 1125.5,-293.5 1125.5,-299.5 1125.5,-299.5 1125.5,-332.5 1125.5,-332.5 1125.5,-338.5 1119.5,-344.5 1113.5,-344.5 1113.5,-344.5 952.5,-344.5 952.5,-344.5 946.5,-344.5 940.5,-338.5 940.5,-332.5 940.5,-332.5 940.5,-299.5 940.5,-299.5 940.5,-293.5 946.5,-287.5 952.5,-287.5"/>
<polygon fill="white" stroke="none" points="948.5,-291.5 948.5,-340.5 1117.5,-340.5 1117.5,-291.5 948.5,-291.5"/>
<polygon fill="black" stroke="none" points="951,-316 951,-338 1116,-338 1116,-316 951,-316"/>
<text text-anchor="start" x="1000" y="-323.3" font-family="Courier New" font-size="14.00" fill="white">State #4</text>
<text text-anchor="start" x="954" y="-299.8" font-family="Courier New" font-size="14.00">(3) l &#45;&gt; &#39;*&#39; r •</text>
<polygon fill="grey" stroke="none" points="1093,-293 1093,-314 1116,-314 1116,-293 1093,-293"/>
<text text-anchor="start" x="1096" y="-299.8" font-family="Courier New" font-size="14.00">=$</text>
</g>
<!-- state1&#45;&gt;state4 -->
<g id="edge7" class="edge"><title>state1&#45;&gt;state4</title>
<path fill="none" stroke="black" stroke-width="5" d="M876.228,-316C893.511,-316 912.002,-316 929.988,-316"/>
<polygon fill="black" stroke="black" stroke-width="5" points="930.211,-320.375 940.211,-316 930.211,-311.625 930.211,-320.375"/>
<text text-anchor="middle" x="916" y="-324.6" font-family="Times,serif" font-size="28.00">r</text>
</g>
<!-- state7 -->
<g id="node8" class="node"><title>state7</title>
<path fill="white" stroke="black" d="M484,-253C484,-253 638,-253 638,-253 644,-253 650,-259 650,-265 650,-265 650,-367 650,-367 650,-373 644,-379 638,-379 638,-379 484,-379 484,-379 478,-379 472,-373 472,-367 472,-367 472,-265 472,-265 472,-259 478,-253 484,-253"/>
<polygon fill="white" stroke="none" points="480,-257 480,-375 642,-375 642,-257 480,-257"/>
<polygon fill="black" stroke="none" points="482,-351 482,-373 640,-373 640,-351 482,-351"/>
<text text-anchor="start" x="527.5" y="-358.3" font-family="Courier New" font-size="14.00" fill="white">State #7</text>
<text text-anchor="start" x="485" y="-334.8" font-family="Courier New" font-size="14.00">(1) e &#45;&gt; l &#39;=&#39; •r </text>
<text text-anchor="start" x="485" y="-311.8" font-family="Courier New" font-size="14.00">(3) l &#45;&gt; •&#39;*&#39; r </text>
<text text-anchor="start" x="485" y="-288.8" font-family="Courier New" font-size="14.00">(4) l &#45;&gt; •&#39;n&#39; </text>
<text text-anchor="start" x="485" y="-265.8" font-family="Courier New" font-size="14.00">(5) r &#45;&gt; •l </text>
</g>
<!-- state6&#45;&gt;state7 -->
<g id="edge10" class="edge"><title>state6&#45;&gt;state7</title>
<path fill="none" stroke="black" d="M421.514,-300.021C434.807,-301.555 448.483,-303.133 461.824,-304.672"/>
<polygon fill="black" stroke="black" points="461.613,-308.171 471.949,-305.84 462.416,-301.217 461.613,-308.171"/>
<text text-anchor="middle" x="447" y="-307.8" font-family="Times,serif" font-size="14.00" fill="#474747">&#39;=&#39;</text>
</g>
<!-- state7&#45;&gt;state1 -->
<g id="edge12" class="edge"><title>state7&#45;&gt;state1</title>
<path fill="none" stroke="black" d="M650.04,-316C667.506,-316 685.872,-316 703.421,-316"/>
<polygon fill="black" stroke="black" points="703.647,-319.5 713.647,-316 703.647,-312.5 703.647,-319.5"/>
<text text-anchor="middle" x="674" y="-319.8" font-family="Times,serif" font-size="14.00" fill="#474747">&#39;*&#39;</text>
</g>
<!-- state7&#45;&gt;state2 -->
<g id="edge13" class="edge"><title>state7&#45;&gt;state2</title>
<path fill="none" stroke="black" d="M644.017,-252.931C661.042,-242.788 679.465,-233.746 698,-228 776.523,-203.656 870.47,-203.508 938.697,-208.227"/>
<polygon fill="black" stroke="black" points="938.764,-211.741 948.995,-208.989 939.281,-204.76 938.764,-211.741"/>
<text text-anchor="middle" x="795" y="-231.8" font-family="Times,serif" font-size="14.00" fill="#474747">&#39;n&#39;</text>
</g>
<!-- state7&#45;&gt;state3 -->
<g id="edge14" class="edge"><title>state7&#45;&gt;state3</title>
<path fill="none" stroke="black" stroke-width="5" d="M625.953,-379.156C647.157,-396.088 672.027,-412.14 698,-421 779.196,-448.697 877.909,-438.432 946.882,-424.796"/>
<polygon fill="black" stroke="black" stroke-width="5" points="947.914,-429.051 956.836,-422.764 946.163,-420.478 947.914,-429.051"/>
<text text-anchor="middle" x="795" y="-446.6" font-family="Times,serif" font-size="28.00">l</text>
</g>
<!-- state8 -->
<g id="node9" class="node"><title>state8</title>
<path fill="white" stroke="black" d="M710.5,-498.5C710.5,-498.5 879.5,-498.5 879.5,-498.5 885.5,-498.5 891.5,-504.5 891.5,-510.5 891.5,-510.5 891.5,-543.5 891.5,-543.5 891.5,-549.5 885.5,-555.5 879.5,-555.5 879.5,-555.5 710.5,-555.5 710.5,-555.5 704.5,-555.5 698.5,-549.5 698.5,-543.5 698.5,-543.5 698.5,-510.5 698.5,-510.5 698.5,-504.5 704.5,-498.5 710.5,-498.5"/>
<polygon fill="white" stroke="none" points="706.5,-502.5 706.5,-551.5 883.5,-551.5 883.5,-502.5 706.5,-502.5"/>
<polygon fill="black" stroke="none" points="709,-527 709,-549 882,-549 882,-527 709,-527"/>
<text text-anchor="start" x="762" y="-534.3" font-family="Courier New" font-size="14.00" fill="white">State #8</text>
<text text-anchor="start" x="712" y="-510.8" font-family="Courier New" font-size="14.00">(1) e &#45;&gt; l &#39;=&#39; r •</text>
<polygon fill="grey" stroke="none" points="867,-504 867,-525 882,-525 882,-504 867,-504"/>
<text text-anchor="start" x="870" y="-510.8" font-family="Courier New" font-size="14.00">$</text>
</g>
<!-- state7&#45;&gt;state8 -->
<g id="edge11" class="edge"><title>state7&#45;&gt;state8</title>
<path fill="none" stroke="black" stroke-width="5" d="M596.756,-379.282C620.366,-415.993 655.077,-459.656 698,-484 703.923,-487.36 710.158,-490.653 716.488,-493.828"/>
<polygon fill="black" stroke="black" stroke-width="5" points="714.899,-497.921 725.804,-498.388 718.746,-490.062 714.899,-497.921"/>
<text text-anchor="middle" x="674" y="-479.6" font-family="Times,serif" font-size="28.00">r</text>
</g>
</g>
</svg>
