<?xml version="1.0" encoding="UTF-8" standalone="no"?>
<!DOCTYPE svg PUBLIC "-//W3C//DTD SVG 1.1//EN"
 "http://www.w3.org/Graphics/SVG/1.1/DTD/svg11.dtd">
<!-- Generated by graphviz version 2.36.0 (20140111.2315)
 -->
<!-- Title: g Pages: 1 -->
<svg width="722pt" height="44pt"
 viewBox="0.00 0.00 722.00 44.00" xmlns="http://www.w3.org/2000/svg" xmlns:xlink="http://www.w3.org/1999/xlink">
<g id="graph0" class="graph" transform="scale(1 1) rotate(0) translate(4 40)">
<title>g</title>
<polygon fill="white" stroke="none" points="-4,4 -4,-40 718,-40 718,4 -4,4"/>
<!-- source -->
<g id="node1" class="node"><title>source</title>
<text text-anchor="middle" x="27" y="-14.3" font-family="Times,serif" font-size="14.00">source</text>
</g>
<!-- lexcial ananlysis -->
<g id="node2" class="node"><title>lexcial ananlysis</title>
<polygon fill="none" stroke="black" points="199.5,-36 92.5,-36 92.5,-0 199.5,-0 199.5,-36"/>
<text text-anchor="middle" x="146" y="-14.3" font-family="Times,serif" font-size="14.00">lexcial ananlysis</text>
</g>
<!-- source&#45;&gt;lexcial ananlysis -->
<g id="edge1" class="edge"><title>source&#45;&gt;lexcial ananlysis</title>
<path fill="none" stroke="black" d="M54.2571,-18C62.6578,-18 72.3485,-18 82.2027,-18"/>
<polygon fill="black" stroke="black" points="82.4839,-21.5001 92.4839,-18 82.4838,-14.5001 82.4839,-21.5001"/>
</g>
<!-- parsing -->
<g id="node3" class="node"><title>parsing</title>
<polygon fill="none" stroke="black" points="330,-36 274,-36 274,-0 330,-0 330,-36"/>
<text text-anchor="middle" x="302" y="-14.3" font-family="Times,serif" font-size="14.00">parsing</text>
</g>
<!-- lexcial ananlysis&#45;&gt;parsing -->
<g id="edge2" class="edge"><title>lexcial ananlysis&#45;&gt;parsing</title>
<path fill="none" stroke="black" d="M199.567,-18C220.594,-18 244.332,-18 263.555,-18"/>
<polygon fill="black" stroke="black" points="263.724,-21.5001 273.724,-18 263.724,-14.5001 263.724,-21.5001"/>
<text text-anchor="middle" x="237" y="-21.8" font-family="Times,serif" font-size="14.00"> &#160;token</text>
</g>
<!-- marco translate -->
<g id="node4" class="node"><title>marco translate</title>
<polygon fill="none" stroke="black" points="505.5,-36 404.5,-36 404.5,-0 505.5,-0 505.5,-36"/>
<text text-anchor="middle" x="455" y="-14.3" font-family="Times,serif" font-size="14.00">marco translate</text>
</g>
<!-- parsing&#45;&gt;marco translate -->
<g id="edge3" class="edge"><title>parsing&#45;&gt;marco translate</title>
<path fill="none" stroke="black" d="M330.345,-18C348.1,-18 371.954,-18 393.973,-18"/>
<polygon fill="black" stroke="black" points="394.264,-21.5001 404.264,-18 394.264,-14.5001 394.264,-21.5001"/>
<text text-anchor="middle" x="367" y="-21.8" font-family="Times,serif" font-size="14.00"> &#160;AST </text>
</g>
<!-- LLC -->
<g id="node5" class="node"><title>LLC</title>
<polygon fill="none" stroke="black" points="622,-36 568,-36 568,-0 622,-0 622,-36"/>
<text text-anchor="middle" x="595" y="-14.3" font-family="Times,serif" font-size="14.00">LLC</text>
</g>
<!-- marco translate&#45;&gt;LLC -->
<g id="edge4" class="edge"><title>marco translate&#45;&gt;LLC</title>
<path fill="none" stroke="black" d="M505.821,-18C522.883,-18 541.645,-18 557.46,-18"/>
<polygon fill="black" stroke="black" points="557.881,-21.5001 567.881,-18 557.881,-14.5001 557.881,-21.5001"/>
<text text-anchor="middle" x="537" y="-21.8" font-family="Times,serif" font-size="14.00"> &#160;.bc</text>
</g>
<!-- .o file -->
<g id="node6" class="node"><title>.o file</title>
<text text-anchor="middle" x="687" y="-14.3" font-family="Times,serif" font-size="14.00">.o file</text>
</g>
<!-- LLC&#45;&gt;.o file -->
<g id="edge5" class="edge"><title>LLC&#45;&gt;.o file</title>
<path fill="none" stroke="black" d="M622.032,-18C630.632,-18 640.363,-18 649.593,-18"/>
<polygon fill="black" stroke="black" points="649.715,-21.5001 659.715,-18 649.715,-14.5001 649.715,-21.5001"/>
</g>
</g>
</svg>
