<?xml version="1.0" encoding="UTF-8" standalone="no"?>
<!DOCTYPE svg PUBLIC "-//W3C//DTD SVG 1.1//EN"
 "http://www.w3.org/Graphics/SVG/1.1/DTD/svg11.dtd">
<!-- Generated by graphviz version 2.36.0 (20140111.2315)
 -->
<!-- Title: g Pages: 1 -->
<svg width="502pt" height="152pt"
 viewBox="0.00 0.00 502.00 152.00" xmlns="http://www.w3.org/2000/svg" xmlns:xlink="http://www.w3.org/1999/xlink">
<g id="graph0" class="graph" transform="scale(1 1) rotate(0) translate(4 148)">
<title>g</title>
<polygon fill="white" stroke="none" points="-4,4 -4,-148 498,-148 498,4 -4,4"/>
<!-- main.out -->
<g id="node1" class="node"><title>main.out</title>
<text text-anchor="middle" x="461" y="-68.3" font-family="Times,serif" font-size="14.00">main.out</text>
</g>
<!-- file3 -->
<g id="node2" class="node"><title>file3</title>
<text text-anchor="middle" x="27" y="-14.3" font-family="Times,serif" font-size="14.00">file3</text>
</g>
<!-- file3.bc -->
<g id="node7" class="node"><title>file3.bc</title>
<polygon fill="none" stroke="black" points="194,-36 136,-36 136,-0 194,-0 194,-36"/>
<text text-anchor="middle" x="165" y="-14.3" font-family="Times,serif" font-size="14.00">file3.bc</text>
</g>
<!-- file3&#45;&gt;file3.bc -->
<g id="edge3" class="edge"><title>file3&#45;&gt;file3.bc</title>
<path fill="none" stroke="black" d="M54.2222,-18C74.5707,-18 103.068,-18 125.929,-18"/>
<polygon fill="black" stroke="black" points="125.986,-21.5001 135.986,-18 125.986,-14.5001 125.986,-21.5001"/>
<text text-anchor="middle" x="95" y="-21.8" font-family="Times,serif" font-size="14.00">compile</text>
</g>
<!-- file2 -->
<g id="node3" class="node"><title>file2</title>
<text text-anchor="middle" x="27" y="-68.3" font-family="Times,serif" font-size="14.00">file2</text>
</g>
<!-- file2.bc -->
<g id="node6" class="node"><title>file2.bc</title>
<polygon fill="none" stroke="black" points="194,-90 136,-90 136,-54 194,-54 194,-90"/>
<text text-anchor="middle" x="165" y="-68.3" font-family="Times,serif" font-size="14.00">file2.bc</text>
</g>
<!-- file2&#45;&gt;file2.bc -->
<g id="edge2" class="edge"><title>file2&#45;&gt;file2.bc</title>
<path fill="none" stroke="black" d="M54.2222,-72C74.5707,-72 103.068,-72 125.929,-72"/>
<polygon fill="black" stroke="black" points="125.986,-75.5001 135.986,-72 125.986,-68.5001 125.986,-75.5001"/>
<text text-anchor="middle" x="95" y="-75.8" font-family="Times,serif" font-size="14.00">compile</text>
</g>
<!-- file1 -->
<g id="node4" class="node"><title>file1</title>
<text text-anchor="middle" x="27" y="-122.3" font-family="Times,serif" font-size="14.00">file1</text>
</g>
<!-- file1.bc -->
<g id="node5" class="node"><title>file1.bc</title>
<polygon fill="none" stroke="black" points="194,-144 136,-144 136,-108 194,-108 194,-144"/>
<text text-anchor="middle" x="165" y="-122.3" font-family="Times,serif" font-size="14.00">file1.bc</text>
</g>
<!-- file1&#45;&gt;file1.bc -->
<g id="edge1" class="edge"><title>file1&#45;&gt;file1.bc</title>
<path fill="none" stroke="black" d="M54.2222,-126C74.5707,-126 103.068,-126 125.929,-126"/>
<polygon fill="black" stroke="black" points="125.986,-129.5 135.986,-126 125.986,-122.5 125.986,-129.5"/>
<text text-anchor="middle" x="95" y="-129.8" font-family="Times,serif" font-size="14.00">compile</text>
</g>
<!-- file1.o -->
<g id="node8" class="node"><title>file1.o</title>
<polygon fill="none" stroke="black" points="298,-144 244,-144 244,-108 298,-108 298,-144"/>
<text text-anchor="middle" x="271" y="-122.3" font-family="Times,serif" font-size="14.00">file1.o</text>
</g>
<!-- file1.bc&#45;&gt;file1.o -->
<g id="edge4" class="edge"><title>file1.bc&#45;&gt;file1.o</title>
<path fill="none" stroke="black" d="M194.144,-126C206.39,-126 220.891,-126 233.916,-126"/>
<polygon fill="black" stroke="black" points="233.976,-129.5 243.975,-126 233.975,-122.5 233.976,-129.5"/>
<text text-anchor="middle" x="219" y="-129.8" font-family="Times,serif" font-size="14.00">llc</text>
</g>
<!-- file2.o -->
<g id="node9" class="node"><title>file2.o</title>
<polygon fill="none" stroke="black" points="298,-90 244,-90 244,-54 298,-54 298,-90"/>
<text text-anchor="middle" x="271" y="-68.3" font-family="Times,serif" font-size="14.00">file2.o</text>
</g>
<!-- file2.bc&#45;&gt;file2.o -->
<g id="edge5" class="edge"><title>file2.bc&#45;&gt;file2.o</title>
<path fill="none" stroke="black" d="M194.144,-72C206.39,-72 220.891,-72 233.916,-72"/>
<polygon fill="black" stroke="black" points="233.976,-75.5001 243.975,-72 233.975,-68.5001 233.976,-75.5001"/>
<text text-anchor="middle" x="219" y="-75.8" font-family="Times,serif" font-size="14.00">llc</text>
</g>
<!-- file3.o -->
<g id="node10" class="node"><title>file3.o</title>
<polygon fill="none" stroke="black" points="298,-36 244,-36 244,-0 298,-0 298,-36"/>
<text text-anchor="middle" x="271" y="-14.3" font-family="Times,serif" font-size="14.00">file3.o</text>
</g>
<!-- file3.bc&#45;&gt;file3.o -->
<g id="edge6" class="edge"><title>file3.bc&#45;&gt;file3.o</title>
<path fill="none" stroke="black" d="M194.144,-18C206.39,-18 220.891,-18 233.916,-18"/>
<polygon fill="black" stroke="black" points="233.976,-21.5001 243.975,-18 233.975,-14.5001 233.976,-21.5001"/>
<text text-anchor="middle" x="219" y="-21.8" font-family="Times,serif" font-size="14.00">llc</text>
</g>
<!-- linker -->
<g id="node11" class="node"><title>linker</title>
<polygon fill="none" stroke="black" points="390,-90 336,-90 336,-54 390,-54 390,-90"/>
<text text-anchor="middle" x="363" y="-68.3" font-family="Times,serif" font-size="14.00">linker</text>
</g>
<!-- file1.o&#45;&gt;linker -->
<g id="edge7" class="edge"><title>file1.o&#45;&gt;linker</title>
<path fill="none" stroke="black" d="M298.032,-110.381C307.094,-104.944 317.413,-98.7523 327.078,-92.9534"/>
<polygon fill="black" stroke="black" points="328.941,-95.9172 335.715,-87.771 325.339,-89.9148 328.941,-95.9172"/>
</g>
<!-- file2.o&#45;&gt;linker -->
<g id="edge8" class="edge"><title>file2.o&#45;&gt;linker</title>
<path fill="none" stroke="black" d="M298.032,-72C306.632,-72 316.363,-72 325.593,-72"/>
<polygon fill="black" stroke="black" points="325.715,-75.5001 335.715,-72 325.715,-68.5001 325.715,-75.5001"/>
</g>
<!-- file3.o&#45;&gt;linker -->
<g id="edge9" class="edge"><title>file3.o&#45;&gt;linker</title>
<path fill="none" stroke="black" d="M298.032,-33.619C307.094,-39.0565 317.413,-45.2477 327.078,-51.0466"/>
<polygon fill="black" stroke="black" points="325.339,-54.0852 335.715,-56.229 328.941,-48.0828 325.339,-54.0852"/>
</g>
<!-- linker&#45;&gt;main.out -->
<g id="edge10" class="edge"><title>linker&#45;&gt;main.out</title>
<path fill="none" stroke="black" d="M390.232,-72C398.875,-72 408.713,-72 418.22,-72"/>
<polygon fill="black" stroke="black" points="418.333,-75.5001 428.333,-72 418.333,-68.5001 418.333,-75.5001"/>
</g>
</g>
</svg>
